<svg width="30" height="30" viewBox="0 0 30 30" fill="none" xmlns="http://www.w3.org/2000/svg">
<path d="M24.0007 20.3333H26.6673C27.4673 20.3333 28.0007 19.8 28.0007 19V15C28.0007 13.8 27.0673 12.7333 26.0007 12.4667C23.6007 11.8 20.0007 11 20.0007 11C20.0007 11 18.2673 9.13333 17.0673 7.93333C16.4007 7.4 15.6007 7 14.6673 7H5.33399C4.53399 7 3.86732 7.53333 3.46732 8.2L1.60065 12.0667C1.42409 12.5816 1.33398 13.1223 1.33398 13.6667V19C1.33398 19.8 1.86732 20.3333 2.66732 20.3333H5.33399" stroke="black" stroke-width="2" stroke-linecap="round" stroke-linejoin="round"/>
<path d="M8.00065 22.9998C9.47341 22.9998 10.6673 21.8059 10.6673 20.3332C10.6673 18.8604 9.47341 17.6665 8.00065 17.6665C6.52789 17.6665 5.33398 18.8604 5.33398 20.3332C5.33398 21.8059 6.52789 22.9998 8.00065 22.9998Z" stroke="black" stroke-width="2" stroke-linecap="round" stroke-linejoin="round"/>
<path d="M10.666 20.3335H18.666" stroke="black" stroke-width="2" stroke-linecap="round" stroke-linejoin="round"/>
<path d="M21.3327 22.9998C22.8054 22.9998 23.9994 21.8059 23.9994 20.3332C23.9994 18.8604 22.8054 17.6665 21.3327 17.6665C19.8599 17.6665 18.666 18.8604 18.666 20.3332C18.666 21.8059 19.8599 22.9998 21.3327 22.9998Z" stroke="black" stroke-width="2" stroke-linecap="round" stroke-linejoin="round"/>
</svg>
