<svg width="30" height="30" viewBox="0 0 30 30" fill="none" xmlns="http://www.w3.org/2000/svg">
<path d="M13.0676 17.3831L9.9043 14.2197" stroke="black" stroke-width="1.5" stroke-linecap="round" stroke-linejoin="round"/>
<path d="M13.0676 21.6008L9.9043 24.7642" stroke="black" stroke-width="1.5" stroke-linecap="round" stroke-linejoin="round"/>
<path d="M17.2891 17.3831L20.4524 14.2197" stroke="black" stroke-width="1.5" stroke-linecap="round" stroke-linejoin="round"/>
<path d="M17.2891 21.6008L20.4524 24.7642" stroke="black" stroke-width="1.5" stroke-linecap="round" stroke-linejoin="round"/>
<path d="M17.502 11.2028C17.9047 10.8094 18.3822 10.5006 18.9062 10.2946C19.4302 10.0886 19.9901 9.98962 20.553 10.0035C21.1159 10.0173 21.6703 10.1437 22.1835 10.3753C22.6967 10.6068 23.1584 10.9387 23.5413 11.3515C23.9243 11.7642 24.2207 12.2495 24.4131 12.7786C24.6055 13.3078 24.69 13.8701 24.6616 14.4324C24.6333 14.9947 24.4926 15.5457 24.248 16.0528C24.0033 16.5599 23.6596 17.0129 23.2371 17.385" stroke="black" stroke-width="1.5" stroke-linecap="round" stroke-linejoin="round"/>
<path d="M23.2297 21.6008C23.6557 21.9716 24.0029 22.4242 24.2507 22.9317C24.4985 23.4391 24.6418 23.9912 24.6722 24.5552C24.7026 25.1191 24.6195 25.6834 24.4277 26.2146C24.2359 26.7458 23.9394 27.233 23.5558 27.6475C23.1721 28.0619 22.7091 28.3951 22.1943 28.6273C21.6795 28.8594 21.1233 28.9858 20.5587 28.9989C19.9941 29.0121 19.4326 28.9117 18.9075 28.7037C18.3824 28.4958 17.9045 28.1845 17.502 27.7883" stroke="black" stroke-width="1.5" stroke-linecap="round" stroke-linejoin="round"/>
<path d="M7.12711 17.383C6.70069 17.012 6.35318 16.5591 6.10524 16.0512C5.85729 15.5433 5.71396 14.9907 5.68376 14.4263C5.65356 13.8619 5.73711 13.2972 5.92944 12.7657C6.12177 12.2342 6.41897 11.7468 6.80336 11.3324C7.18776 10.9181 7.65152 10.5852 8.1671 10.3536C8.68267 10.1219 9.23954 9.99632 9.80462 9.98413C10.3697 9.97195 10.9315 10.0735 11.4565 10.2827C11.9816 10.4918 12.4593 10.8044 12.8612 11.2019" stroke="black" stroke-width="1.5" stroke-linecap="round" stroke-linejoin="round"/>
<path d="M12.8544 27.7816C12.4506 28.1725 11.9727 28.4788 11.4488 28.6824C10.9249 28.886 10.3656 28.9828 9.80381 28.9672C9.24197 28.9516 8.68893 28.8239 8.17716 28.5915C7.66539 28.3592 7.20523 28.0269 6.82371 27.6141C6.44219 27.2014 6.14701 26.7166 5.9555 26.1882C5.764 25.6598 5.68004 25.0984 5.70856 24.5371C5.73708 23.9757 5.8775 23.4258 6.12157 22.9195C6.36564 22.4132 6.70844 21.9608 7.12982 21.5889" stroke="black" stroke-width="1.5" stroke-linecap="round" stroke-linejoin="round"/>
<path d="M16.2297 15.2742H14.1209C13.5385 15.2742 13.0664 15.7463 13.0664 16.3286V22.6553C13.0664 23.2377 13.5385 23.7097 14.1209 23.7097H16.2297C16.8121 23.7097 17.2842 23.2377 17.2842 22.6553V16.3286C17.2842 15.7463 16.8121 15.2742 16.2297 15.2742Z" fill="black" stroke="black" stroke-width="1.5" stroke-linecap="round" stroke-linejoin="round"/>
<path d="M15.1797 1L19.0768 7.75003H11.2826L15.1797 1Z" fill="black"/>
</svg>
