<svg width="30" height="30" viewBox="0 0 30 30" fill="none" xmlns="http://www.w3.org/2000/svg">
<path d="M24.4447 18.7742L16.7803 12.5806V5.80645C16.7803 2.90323 15.6307 0.483871 14.481 0C13.3314 0.483871 12.1817 2.90323 12.1817 5.80645V12.5806L4.51734 18.7742C4.05748 19.1613 3.9042 19.7419 4.05748 20.3226L4.21077 21.0968C4.4407 21.7742 4.90056 22.1613 5.43707 22.0645L12.1817 20.3226L12.9481 25.1613L10.6488 28.0645V30L14.481 29.0323L18.3132 30V28.0645L16.0139 25.1613L16.7803 20.3226L23.525 22.0645C24.0615 22.1613 24.5213 21.7742 24.7512 21.0968L24.9812 20.4194C25.0578 19.7419 24.9045 19.1613 24.4447 18.7742Z" fill="white"/>
</svg>
