<svg width="258" height="40" viewBox="0 0 258 40" fill="none" xmlns="http://www.w3.org/2000/svg">
<path d="M46.4717 0H62.3027V40H46.4717V25.6667H15.7459V40H0V0H15.7459V14.4167H46.4717V0Z" fill="#292929"/>
<path d="M122.029 0C126.625 0 130.456 3.75 130.456 8.25V31.8333C130.456 36.3333 126.625 40 122.029 40H68.3231V0H122.029ZM114.625 23.5V16.5833C114.625 14.3333 112.752 12.5 110.369 12.5H84.069V27.5833H110.369C112.752 27.5833 114.625 25.75 114.625 23.5Z" fill="#292929"/>
<path d="M194.026 0V12.5H171.727V40H155.896V12.5H133.681V0H194.026Z" fill="#292929"/>
<path d="M213.401 27.5833H258V40H197.655V0H213.401V27.5833Z" fill="#292929"/>
</svg>
