<svg width="382" height="221" viewBox="0 0 382 221" fill="none" xmlns="http://www.w3.org/2000/svg">
<path d="M86.0002 114C83.7887 151.5 118.504 181.333 137.004 194.5C143.336 179 162.1 143 186.5 123L250 185.5C268 172.5 289.5 143.5 293 130.5C296.13 118.872 300 97 289.5 76C281.1 59.2 257.333 37 246.5 28C232.5 60 207.333 89 196.5 99.5L133.004 36.5C93.0028 74 88.0054 80.0002 86.0002 114Z" fill="white"/>
<path d="M37.999 8C13.6947 39.0742 -0.55187 74.4665 0.016381 112.948C0.584632 151.43 12.7864 190.564 37.999 221L83.4983 175C66.6365 154.645 63.3214 137.874 62.9413 112.138C62.5613 86.4014 67.2439 75.282 83.4983 54.5L37.999 8Z" fill="white"/>
<path d="M343.499 213C367.803 181.926 382.05 146.533 381.482 108.052C380.913 69.5696 368.712 30.4361 343.499 0L298 46C314.862 66.3552 318.177 83.1264 318.557 108.862C318.937 134.599 314.254 145.718 298 166.5L343.499 213Z" fill="white"/>
</svg>
