<svg width="227" height="36" viewBox="0 0 227 36" fill="none" xmlns="http://www.w3.org/2000/svg">
<path d="M25.3799 21.9148L15.2099 20.1148C-7.83503e-05 17.0998 3.46492 0.0898411 16.3349 0.0898411H33.0299V8.32484H16.3349C13.0499 8.32484 12.1949 10.9348 17.0549 11.7898L27.2699 13.6348C42.4799 16.6048 38.9699 33.8398 26.0999 33.8398H7.37992V25.3348H26.0999C29.4299 25.3348 30.2849 22.7698 25.3799 21.9148ZM70.8725 18.0448L61.2875 23.3098H51.3875C52.8725 26.5498 57.5525 26.5498 60.2075 24.3898L69.6125 25.3348C66.5525 31.7698 59.3075 35.1448 52.4225 33.4798C44.7275 31.6798 39.8675 24.1198 41.8475 16.4248C43.8725 8.41484 52.0625 3.77984 59.9825 5.62484C65.8775 7.06484 70.3325 11.9248 70.8725 18.0448ZM50.0825 18.2698L62.2325 18.2248C61.6025 15.9298 59.7575 14.0848 57.4625 13.5448C54.0875 12.7348 50.6675 14.8948 50.0825 18.2698ZM106.112 33.8848H97.6517V20.8348C97.6517 11.9698 83.6567 11.9698 83.6567 20.8348V33.8848H75.1517V20.8348C75.1517 0.809843 106.112 0.809843 106.112 20.8348V33.8848ZM131.262 24.9748V33.6598C121.992 35.3698 111.012 30.9598 111.012 20.0698V-0.000157773H119.472V7.42484H130.182V15.8848H119.472V20.0698C119.472 25.1548 126.492 26.5948 131.262 24.9748ZM135.358 12.5998H143.863V33.8398H135.358V12.5998ZM139.588 8.81984C137.158 8.81984 135.178 6.83984 135.178 4.40984C135.178 2.06984 137.158 -0.000157773 139.588 -0.000157773C142.018 -0.000157773 143.998 2.06984 143.998 4.40984C143.998 6.83984 142.018 8.81984 139.588 8.81984ZM179.72 33.8848H171.26V20.8348C171.26 11.9698 157.265 11.9698 157.265 20.8348V33.8848H148.76V20.8348C148.76 0.809843 179.72 0.809843 179.72 20.8348V33.8848ZM213.871 18.0448L204.286 23.3098H194.386C195.871 26.5498 200.551 26.5498 203.206 24.3898L212.611 25.3348C209.551 31.7698 202.306 35.1448 195.421 33.4798C187.726 31.6798 182.866 24.1198 184.846 16.4248C186.871 8.41484 195.061 3.77984 202.981 5.62484C208.876 7.06484 213.331 11.9248 213.871 18.0448ZM193.081 18.2698L205.231 18.2248C204.601 15.9298 202.756 14.0848 200.461 13.5448C197.086 12.7348 193.666 14.8948 193.081 18.2698ZM218.195 -0.000157773H226.7V33.8398H218.195V-0.000157773Z" fill="black"/>
</svg>
