<svg width="102" height="78" viewBox="0 0 102 78" fill="none" xmlns="http://www.w3.org/2000/svg">
<path d="M43.5578 52.2389L21.6358 48.3589C-11.1502 41.8599 -3.68122 5.19385 24.0608 5.19385H60.0478V22.9448H24.0608C16.9798 22.9448 15.1368 28.5709 25.6128 30.4139L47.6318 34.3909C80.4178 40.7929 72.8518 77.9438 45.1098 77.9438H4.75779V59.6109H45.1098C52.2878 59.6109 54.1308 54.0819 43.5578 52.2389Z" fill="#292929"/>
<path d="M78.5695 32.1599H96.9025V77.9438H78.5695V32.1599Z" fill="#292929"/>
<path d="M88 0C88 14 78.6667 13.2222 74 14C78.6667 14.7778 88 14 88 28C88 14 97.3333 14.7778 102 14C97.3333 13.2222 88 14 88 0Z" fill="#292929"/>
</svg>
